<?xml version="1.0" encoding="UTF-8"?>
<svg width="165px" height="36px" viewBox="0 0 165 36" version="1.1" xmlns="http://www.w3.org/2000/svg" xmlns:xlink="http://www.w3.org/1999/xlink">
    <!-- Generator: Sketch 64 (93537) - https://sketch.com -->
    <title>zecops-blog-logo</title>
    <desc>Created with Sketch.</desc>
    <g id="Page-1" stroke="none" stroke-width="1" fill="none" fill-rule="evenodd">
        <g id="Artboard" transform="translate(-80.000000, -385.000000)" fill-rule="nonzero">
            <g id="zecops-blog-logo" transform="translate(80.000301, 384.999969)">
                <path d="M18.9685149,33.9590106 C17.8207347,34.1354106 16.6753658,34.3286106 15.522763,34.5494106 C14.3701601,34.7780106 13.2121318,35.0180106 12.031799,35.3924106 C13.2181601,35.7500106 14.4262229,35.8898105 15.6324772,35.9312105 C16.8399372,35.9660106 18.0467944,35.8874106 19.237978,35.7056106 C20.4297645,35.5250106 21.6052747,35.2394106 22.745821,34.8452106 C23.8845589,34.4450106 24.9949639,33.9488106 26.0161507,33.2480106 C24.7773438,33.2450106 23.600628,33.3620106 22.4329544,33.4904105 C21.2670895,33.6236105 20.1162952,33.7814106 18.9685149,33.9590106 M24.5108948,28.3520106 L23.6241382,28.5680106 C23.026135,28.6862105 22.4401884,28.8434106 21.8415824,28.9496106 L20.950606,29.1320106 L20.0554097,29.2934106 C19.4604207,29.4062105 18.8612119,29.4992106 18.262606,29.5922106 C15.8663736,29.9534105 13.4532622,30.2012106 11.0118179,30.3380106 C8.56796234,30.4832106 6.10843328,30.4952105 3.57174254,30.5240105 C5.93240816,31.4564105 8.44558872,31.9658105 10.9822794,32.1848106 C13.5213815,32.3966106 16.0924333,32.3012106 18.6212873,31.9214106 C19.2512402,31.8170106 19.8817959,31.7096106 20.5069262,31.5776106 C21.1308509,31.4378106 21.7547755,31.2992106 22.369055,31.1234105 C23.600628,30.7868105 24.8129105,30.3806106 25.9890236,29.8910106 C28.3448666,28.9244106 30.5807472,27.6716106 32.5477677,26.0744105 C30.1171743,26.8028106 27.7733877,27.5420106 25.3994599,28.1324106 C25.105281,28.2122106 24.8092936,28.2872106 24.5108948,28.3520106 M26.9867002,22.8254105 L26.969821,22.8182105 C27.6829639,21.2954105 28.0440565,19.6640106 28.0440565,17.9702106 C28.0440565,16.2752105 27.6829639,14.6444105 26.969821,13.1216105 L26.9867002,13.1138106 C26.6883014,13.0148106 26.3899027,12.9092105 26.0909011,12.8144106 C24.693551,12.3806106 23.2901727,11.9972106 21.8801633,11.6600105 C21.5244961,11.5874106 21.1724458,11.5010106 20.8191899,11.4212106 C20.4677426,11.3354106 20.1084584,11.2814106 19.7539969,11.2100105 C19.4670518,11.1464106 19.1782983,11.0966105 18.8889419,11.0462105 C19.1776954,12.2852106 19.3392528,13.5728106 19.3392528,14.9000105 C19.3392528,17.8874106 18.5658273,20.6882106 17.2088665,23.1266106 C15.7934317,20.6528105 14.9874537,17.7914106 14.9874537,14.7398105 C14.9874537,13.2944105 15.1707127,11.8934106 15.5113092,10.5542106 C15.4956358,10.5530105 15.4793595,10.5500106 15.463686,10.5488106 C14.7457206,10.4462106 14.021124,10.4108105 13.2989388,10.3358106 C12.5743422,10.2932106 11.84854,10.2386106 11.1203266,10.2086106 C10.3927159,10.1864106 9.66209102,10.1600106 8.93086343,10.1612106 C8.61377704,10.1582106 8.29608792,10.1690106 7.97900153,10.1714105 L7.99829202,10.1894105 C6.03247724,12.3152105 4.95040502,15.0782105 4.95040502,17.9702106 C4.95040502,20.8610106 6.03247724,23.6240106 7.99829202,25.7498106 L7.97900153,25.7678106 C8.29608792,25.7708106 8.61377704,25.7810105 8.93086343,25.7780106 C9.66209102,25.7792105 10.3927159,25.7534106 11.1203266,25.7306105 C11.84854,25.7012106 12.5743422,25.6466106 13.2989388,25.6034106 C14.021124,25.5284106 14.7457206,25.4936106 15.463686,25.3910106 C16.1846656,25.3220105 16.899617,25.2092106 17.6163768,25.1072106 C18.3289168,24.9854105 19.0468822,24.8864105 19.7539969,24.7292106 C20.1084584,24.6578105 20.4677426,24.6038105 20.8191899,24.5180106 C21.1724458,24.4382105 21.5244961,24.3518105 21.8801633,24.2792106 C23.2901727,23.9420106 24.693551,23.5586106 26.0909011,23.1248106 C26.3899027,23.0300106 26.6883014,22.9250106 26.9867002,22.8254105 M30.5415636,21.5510105 C31.834022,21.0440106 33.121055,20.4980105 34.4484772,19.9550106 C33.3929293,21.0668105 32.2047598,22.0436106 30.9514851,22.9388105 C29.6897708,23.8208105 28.3472778,24.5924106 26.955956,25.2764106 C25.5610173,25.9532106 24.1045903,26.5052106 22.6204333,26.9756106 C21.874135,27.1964106 21.1230141,27.4046105 20.3628508,27.5756105 C19.6050989,27.7592105 18.8346876,27.8798105 18.0678932,28.0196106 C16.5246593,28.2434105 14.9687661,28.3712105 13.4128728,28.3898106 C11.8563768,28.3880106 10.302292,28.3082105 8.76689482,28.0820106 C5.7015259,27.6368105 2.69643956,26.7626106 1.77635684e-14,25.2962106 C1.42508006,25.4294106 2.82544427,25.5458106 4.21375196,25.6322106 C2.77420408,23.3498106 1.98932496,20.7086105 1.98932496,17.9702106 C1.98932496,15.2306106 2.77420408,12.5894106 4.21375196,10.3070106 C2.82544427,10.3940106 1.42508006,10.5098105 1.77635684e-14,10.6436106 C2.69643956,9.17661056 5.7015259,8.30241058 8.76689482,7.85721056 C10.302292,7.63101058 11.8563768,7.55121056 13.4128728,7.54941056 C14.9687661,7.56801058 16.5246593,7.69641054 18.0678932,7.92081058 C18.8346876,8.05941058 19.6050989,8.18001058 20.3628508,8.36361058 C21.1230141,8.53521054 21.874135,8.74341058 22.6204333,8.96361054 C24.1045903,9.43401056 25.5610173,9.98601054 26.955956,10.6628105 C28.3472778,11.3468105 29.6897708,12.1190105 30.9514851,13.0004106 C32.2047598,13.8962106 33.3929293,14.8724106 34.4484772,15.9842106 C33.1216578,15.4412106 31.8346248,14.8964105 30.5427692,14.3888105 C30.841168,15.5504106 31.0051366,16.7456106 31.0051366,17.9702106 C31.0051366,19.1942106 30.8405652,20.3894106 30.5415636,21.5510105 M18.9685149,1.98081056 C20.1162952,2.15781056 21.2670895,2.31561056 22.4329544,2.44881056 C23.600628,2.57721056 24.7773438,2.69481056 26.0161507,2.69121056 C24.9949639,1.99041056 23.8845589,1.49541056 22.745821,1.09461056 C21.6052747,0.69981056 20.4297645,0.41421056 19.237978,0.23361056 C18.0467944,0.0524105602 16.8399372,-0.0267894398 15.6324772,0.0080105602 C14.4262229,0.0494105602 13.2181601,0.18921056 12.031799,0.54681056 C13.2121318,0.921210558 14.3701601,1.16121056 15.522763,1.38981056 C16.6753658,1.61061056 17.8207347,1.80381056 18.9685149,1.98081056 M11.0118179,5.60121056 C8.56796234,5.45601056 6.10843328,5.44461056 3.57174254,5.41521056 C5.93240816,4.48281056 8.44558872,3.97341056 10.9822794,3.75441056 C13.5213815,3.54321056 16.0924333,3.63801056 18.6212873,4.01781056 C19.2512402,4.12221056 19.8817959,4.22961056 20.5069262,4.36161056 C21.1308509,4.50141056 21.7547755,4.64001056 22.369055,4.81581056 C23.600628,5.15241056 24.8129105,5.55861056 25.9890236,6.04821056 C28.3448666,7.01481056 30.5807472,8.26821058 32.5477677,9.86481058 C30.1171743,9.13641054 27.7733877,8.39721056 25.3994599,7.80681056 C25.105281,7.72761056 24.8092936,7.65201056 24.5108948,7.58721056 L23.6241382,7.37121056 C23.026135,7.25301056 22.4401884,7.09641056 21.8415824,6.98961056 L20.950606,6.80721056 L20.0554097,6.64641056 C19.4604207,6.53301056 18.8612119,6.44001056 18.262606,6.34701056 C15.8663736,5.98581056 13.4532622,5.73801056 11.0118179,5.60121056" id="eye" fill="#087A7A"></path>
                <path d="M101.566812,12.4463106 C104.828099,12.4463106 106.461757,14.8223106 106.461757,17.9423106 C106.461757,19.4603105 106.00361,20.8223106 105.159654,21.8243106 C104.285556,22.8683106 102.995509,23.5103105 101.379936,23.5103105 L101.379936,23.5103105 L98.2211288,23.5103105 L98.2211288,27.1103105 L95.9183345,27.1103105 L95.9183345,12.5783106 L98.2211288,12.5783106 L98.2211288,14.4329105 C98.7938132,13.3283106 99.9572671,12.4463106 101.566812,12.4463106 Z M85.6789779,9.72837058 C90.2905948,9.72837058 93.9708462,12.7199706 93.9708462,17.9555706 C93.9708462,23.1647706 90.2905948,26.1563706 85.6789779,26.1563706 C81.0667578,26.1563706 77.3871097,23.1647706 77.3871097,17.9297705 C77.3871097,12.7199706 81.0667578,9.72837058 85.6789779,9.72837058 Z M85.6789779,11.8685706 C82.5955243,11.8685706 80.0558191,14.1125706 80.0558191,17.9297705 C80.0558191,21.8243706 82.5955243,23.9903705 85.6789779,23.9903705 C88.7618284,23.9903705 91.3015336,21.8243706 91.3015336,17.9555706 C91.3015336,14.1125706 88.7618284,11.8685706 85.6789779,11.8685706 Z M59.3268119,12.3981306 C62.045556,12.3981306 64.197644,14.2281306 64.197644,17.3721305 C64.197644,17.8647306 64.1433896,18.4587306 64.1433896,18.4587306 L64.1433896,18.4587306 L56.4754461,18.4587306 C56.4754461,20.4921306 57.9764823,21.5241306 59.8452421,21.5241306 L59.8452421,21.5241306 L63.8660898,21.5241306 L63.8660898,23.5407305 L59.8452421,23.5407305 C56.2704854,23.5407305 54.1425105,21.3741306 54.1425105,17.9661305 C54.1425105,14.6181305 56.3729658,12.3981306 59.3268119,12.3981306 Z M114.937367,12.3684306 L114.937367,14.3844306 L111.615797,14.3844306 C110.916519,14.3844306 110.138874,14.6664306 110.138874,15.4404306 C110.138874,17.4504305 115.558277,16.4724306 115.558277,20.2404305 C115.558277,22.2504306 113.978873,23.5104306 111.489203,23.5104306 L106.998151,23.5104306 L107.76374,21.5244306 L111.489203,21.5244306 C112.598403,21.5004305 113.146974,20.9964305 113.146974,20.2884306 C113.146974,18.0984305 107.860192,19.2564306 107.860192,15.4164305 C107.860192,13.5084305 109.415482,12.3684306 111.615797,12.3684306 L114.937367,12.3684306 Z M72.3599646,12.4128906 L75.9226649,12.4188905 L75.9226649,12.4188905 L75.1148786,14.4708905 C74.1985831,14.4708905 73.2822883,14.4768906 72.3599646,14.4768906 C71.6546587,14.4708905 71.238709,14.4888905 70.7504201,14.6388906 C70.2741877,14.7822905 69.8461814,15.0468905 69.4905143,15.3768906 C68.7791799,16.0428906 68.3632301,16.9842906 68.3692584,17.9448905 C68.3632301,18.8988905 68.7791799,19.8408906 69.4905143,20.5062905 C69.8461814,20.8368906 70.2741877,21.1008906 70.7504201,21.2448906 C71.238709,21.3948906 71.6546587,21.4188905 72.3599646,21.4062905 C73.2822883,21.4062905 74.1985831,21.4128906 75.1148786,21.4128906 L75.9286931,23.4648906 C74.7411266,23.4648906 73.55356,23.4708905 72.3599646,23.4708905 C71.7872804,23.4768906 70.8950983,23.4888905 70.1475944,23.2608906 C69.3820057,23.0448906 68.6586148,22.6668906 68.0497607,22.1508906 C67.4409068,21.6408906 66.9405614,20.9988906 66.5909224,20.2728906 C66.2473118,19.5468905 66.0664641,18.7428906 66.0604358,17.9448905 C66.0664641,17.1408906 66.2473118,16.3368906 66.5909224,15.6108906 C66.9405614,14.8842906 67.4409068,14.2428906 68.0497607,13.7322906 C68.6586148,13.2168906 69.3820057,12.8388906 70.1475944,12.6282906 C70.8950983,12.3948906 71.7872804,12.4062905 72.3599646,12.4128906 Z M52.8721759,12.5777706 L47.0163265,21.2177706 L52.5743799,21.2177706 L53.4231586,23.3579706 L42.9996986,23.3579706 L48.8302292,14.6927706 L44.5242449,14.6927706 L43.6857143,12.5777706 L52.8721759,12.5777706 Z M101.253343,14.5103105 C99.4147243,14.5103105 98.2211288,16.1603106 98.2211288,18.8723106 L98.2211288,18.8723106 L98.2211288,21.4763105 L101.187031,21.4763105 C103.110046,21.4103106 104.104708,19.7603106 104.104708,17.8643106 C104.104708,15.9569106 103.30295,14.5103105 101.253343,14.5103105 Z M59.375038,14.3067305 C58.1091039,14.3067305 57.0179893,15.0807305 56.6020395,16.6281306 L56.6020395,16.6281306 L62.045556,16.6281306 C61.8888214,15.0807305 60.7494807,14.3067305 59.375038,14.3067305 Z" id="zecops" fill="#000000"></path>
                <path d="M128.652409,23.6250306 C131.021061,23.6250306 132.459171,22.4253235 132.459171,20.4719544 C132.459171,19.0030823 131.405582,17.9187317 129.898258,17.7726136 L129.898258,17.7110901 C131.036442,17.5265198 131.920841,16.4883118 131.920841,15.2962952 C131.920841,13.6120911 130.621159,12.5277405 128.606266,12.5277405 L123.999699,12.5277405 L123.999699,23.6250306 L128.652409,23.6250306 Z M127.798771,17.2035218 L125.983829,17.2035218 L125.983829,14.0735169 L128.106388,14.0735169 C129.290714,14.0735169 129.959782,14.6195374 129.959782,15.5885315 C129.959782,16.6190491 129.183048,17.2035218 127.798771,17.2035218 Z M128.198673,22.0792542 L125.983829,22.0792542 L125.983829,18.6108704 L128.114078,18.6108704 C129.636784,18.6108704 130.436588,19.2030335 130.436588,20.3335267 C130.436588,21.4717102 129.659855,22.0792542 128.198673,22.0792542 Z M141.458073,23.6250306 L141.458073,21.9485169 L136.420841,21.9485169 L136.420841,12.5277405 L134.43671,12.5277405 L134.43671,23.6250306 L141.458073,23.6250306 Z M147.87299,23.8096009 C151.10297,23.8096009 153.133244,21.610138 153.133244,18.0802308 C153.133244,14.5503235 151.10297,12.3431702 147.87299,12.3431702 C144.635319,12.3431702 142.605045,14.5503235 142.605045,18.0802308 C142.605045,21.610138 144.635319,23.8096009 147.87299,23.8096009 Z M147.87299,22.1177063 C145.888859,22.1177063 144.635319,20.5488587 144.635319,18.0802308 C144.635319,15.6039124 145.888859,14.0350647 147.87299,14.0350647 C149.84943,14.0350647 151.110661,15.6039124 151.110661,18.0802308 C151.110661,20.5488587 149.84943,22.1177063 147.87299,22.1177063 Z M160.148014,23.8096009 C163.185734,23.8096009 164.985294,22.0023499 164.985294,18.9953919 L164.985294,17.8110657 L160.371036,17.8110657 L160.371036,19.3260804 L163.047306,19.3260804 L163.039616,19.5106507 C163.008854,21.0641175 161.847599,22.1253968 160.171085,22.1253968 C158.171574,22.1253968 156.925724,20.5642395 156.925724,18.0110169 C156.925724,15.5116272 158.117741,14.0273743 160.117252,14.0273743 C161.478458,14.0273743 162.508976,14.7810364 162.885807,16.0576477 L164.9007,16.0576477 C164.539249,13.8351136 162.632023,12.3431702 160.109562,12.3431702 C156.902653,12.3431702 154.895451,14.5118714 154.895451,18.0340882 C154.895451,21.610138 156.910343,23.8096009 160.148014,23.8096009 Z" id="blog" fill="#656874"></path>
            </g>
        </g>
    </g>
</svg>